<svg xmlns="http://www.w3.org/2000/svg" width="30" height="32" viewBox="0 0 30 32">
    <defs>
        <filter id="kk0ltebeja" color-interpolation-filters="auto">
            <feColorMatrix in="SourceGraphic" values="0 0 0 0 1.000000 0 0 0 0 1.000000 0 0 0 0 1.000000 0 0 0 1.000000 0"/>
        </filter>
    </defs>
    <g fill="none" fill-rule="evenodd" stroke-linecap="round" stroke-linejoin="round">
        <g>
            <g>
                <g filter="url(#kk0ltebeja)" transform="translate(-1391.000000, -176.000000) translate(1381.000000, 167.000000) translate(0.907692, 0.000000)">
                    <g>
                        <g stroke="#555" stroke-width="1.5">
                            <path d="M14.963 26.667c0 2.074-1.576 3.878-3.513 3.878h-.003c-1.94-.001-3.525-1.804-3.525-3.878M11.47 26.667h10.299c.959 0 1.47-1.438.835-2.348L21.1 22.171c-.358-.512-.63-1.126-.63-1.752v-4.927c0-2.896-.726-5.554-2.069-7.631-.225-.353-.469-.687-.724-1.003l-.047-.056c-1.102-1.345-2.455-2.353-3.964-2.901l-.44-.174v-1.93c0-.993-.8-1.797-1.784-1.797S9.658.804 9.658 1.796v1.931l-.44.174c-1.51.548-2.862 1.556-3.963 2.901l-.048.056c-.255.316-.5.65-.724 1.003-1.343 2.077-2.068 4.735-2.068 7.631v4.927c0 .626-.273 1.24-.631 1.752L.28 24.319c-.635.91-.124 2.348.835 2.348H11.47z" transform="translate(9.984615, 9.000000) translate(3.080653, 0.969697)"/>
                        </g>
                    </g>
                </g>
            </g>
        </g>
    </g>
</svg>
