<svg xmlns="http://www.w3.org/2000/svg" width="24" height="25" viewBox="0 0 24 25">
    <defs>
        <filter id="6oguf32t0a" color-interpolation-filters="auto">
            <feColorMatrix in="SourceGraphic" values="0 0 0 0 1.000000 0 0 0 0 1.000000 0 0 0 0 1.000000 0 0 0 1.000000 0"/>
        </filter>
    </defs>
    <g fill="none" fill-rule="evenodd">
        <g filter="url(#6oguf32t0a)" transform="translate(-994.000000, -89.000000)">
            <g>
                <path fill="#4D4D4D" d="M14.965 19c-.06-.004-.076-.004-.135-.014-.135-.023-.265-.074-.379-.15-.058-.037-.108-.081-.159-.128l-6-6c-.041-.045-.053-.055-.09-.103-.04-.055-.076-.114-.106-.175-.128-.27-.128-.59 0-.86.03-.06.065-.12.106-.174.037-.048.049-.059.09-.103l6-6c.045-.041.055-.053.103-.09.127-.096.277-.161.435-.188.112-.02.227-.02.34 0 .09.015.177.043.259.082.312.148.53.457.565.8.014.137 0 .275-.041.406-.035.108-.088.21-.157.301-.036.049-.048.059-.09.103L10.415 12l5.293 5.293.046.05c.039.047.05.058.083.11.062.094.108.2.135.31.022.09.031.18.028.272-.012.345-.208.668-.51.837-.099.056-.207.095-.32.114-.06.01-.075.01-.135.014h-.069z" transform="translate(994.000000, 89.770463) translate(11.999771, 12.000000) scale(-1, 1) rotate(180.000000) translate(-11.999771, -12.000000)"/>
            </g>
        </g>
    </g>
</svg>
