<svg version="1.2" baseProfile="tiny-ps" xmlns="http://www.w3.org/2000/svg" viewBox="0 0 18 18" width="18" height="18">
	<title>arrow-down-svg</title>
	<style>
		tspan { white-space:pre }
		.shp0 { fill: #4d4d4d } 
	</style>
	<g id="Layer">
		<g id="Layer">
			<g id="Layer">
				<g id="Layer">
					<g id="Layer">
						<g id="Layer">
							<path id="Layer" fill-rule="evenodd" class="shp0" d="M14.25 11.22C14.25 11.18 14.25 11.17 14.24 11.12C14.22 11.02 14.18 10.92 14.13 10.84C14.1 10.8 14.07 10.76 14.03 10.72L9.53 6.22C9.5 6.19 9.49 6.18 9.45 6.15C9.41 6.12 9.37 6.09 9.32 6.07C9.12 5.98 8.88 5.98 8.68 6.07C8.63 6.09 8.59 6.12 8.55 6.15C8.51 6.18 8.5 6.19 8.47 6.22L3.97 10.72C3.94 10.75 3.93 10.76 3.9 10.8C3.83 10.89 3.78 11 3.76 11.12C3.75 11.21 3.75 11.29 3.76 11.38C3.77 11.44 3.79 11.51 3.82 11.57C3.93 11.81 4.17 11.97 4.42 12C4.53 12.01 4.63 12 4.73 11.96C4.81 11.94 4.89 11.9 4.95 11.85C4.99 11.82 5 11.81 5.03 11.78L9 7.81L12.97 11.78L13.01 11.82C13.04 11.84 13.05 11.85 13.09 11.88C13.16 11.92 13.24 11.96 13.32 11.98C13.39 11.99 13.46 12 13.53 12C13.79 11.99 14.03 11.84 14.15 11.62C14.2 11.54 14.23 11.46 14.24 11.38C14.25 11.33 14.25 11.32 14.25 11.28L14.25 11.22L14.25 11.22Z" />
						</g>
					</g>
				</g>
			</g>
		</g>
		<text id=" " style="transform: matrix(1,0,0,1,-9,-12)" >
		</text>
	</g>
</svg>