<svg xmlns="http://www.w3.org/2000/svg" width="18" height="18" viewBox="0 0 18 18">
    <g fill="none" fill-rule="evenodd">
        <g fill="#fff">
            <g>
                <g>
                    <g>
                        <g>
                            <path d="M11.224 14.25c-.045-.003-.057-.003-.102-.01-.1-.018-.198-.056-.284-.112-.043-.029-.08-.062-.119-.097l-4.5-4.5c-.031-.034-.04-.041-.067-.078-.031-.04-.058-.084-.08-.13-.096-.203-.096-.443 0-.645.022-.046.049-.09.08-.131.027-.036.036-.044.067-.077l4.5-4.5c.034-.031.041-.04.077-.068.096-.072.208-.12.326-.141.084-.015.17-.015.255 0 .067.011.133.032.195.062.234.111.397.342.424.6.01.102 0 .206-.032.304-.025.081-.065.158-.117.226-.027.037-.036.044-.067.077L7.81 9l3.97 3.97.035.037c.029.036.037.044.062.082.047.071.081.15.101.234.016.066.024.135.021.203-.009.26-.156.501-.382.628-.074.042-.156.071-.24.086-.045.007-.056.007-.102.01h-.051z" transform="translate(-745.000000, -77.000000) translate(1.000000, -1.000000) translate(0.000000, 45.000000) translate(592.000000, 28.000000) translate(152.000000, 5.000000) translate(8.999819, 8.999990) scale(-1, 1) rotate(-90.000000) translate(-8.999819, -8.999990)"/>
                        </g>
                    </g>
                </g>
            </g>
        </g>
    </g>
</svg>
