<svg xmlns="http://www.w3.org/2000/svg" width="30" height="30" viewBox="0 0 30 30">
    <defs>
        <filter id="c9bmjevrwa" color-interpolation-filters="auto">
            <feColorMatrix in="SourceGraphic" values="0 0 0 0 0.000000 0 0 0 0 0.352941 0 0 0 0 0.635294 0 0 0 1.000000 0"/>
        </filter>
    </defs>
    <g fill="none" fill-rule="evenodd">
        <g>
            <g filter="url(#c9bmjevrwa)" transform="translate(-369.000000, -1220.000000) translate(369.000000, 1220.000000)">
                <g>
                    <path fill="#4D4D4D" d="M18.707 23.75c-.076-.005-.095-.005-.17-.017-.168-.03-.33-.093-.473-.187-.073-.047-.136-.103-.199-.161l-7.5-7.5c-.052-.056-.066-.069-.112-.13-.052-.067-.096-.14-.133-.218-.16-.337-.16-.737 0-1.074.037-.077.081-.15.133-.218.046-.06.06-.073.112-.129l7.5-7.5c.056-.052.069-.066.13-.112.158-.12.345-.202.542-.236.14-.024.284-.024.425 0 .112.02.221.054.324.103.39.186.663.571.707 1.001.017.17 0 .343-.052.506-.043.136-.11.264-.196.377-.045.06-.06.074-.112.129L13.017 15l6.616 6.617.059.062c.047.059.061.073.103.136.078.12.135.251.169.39.027.11.039.225.035.338-.015.433-.26.835-.637 1.047-.124.07-.26.118-.4.143-.075.012-.094.012-.17.017h-.085z" transform="translate(0.000000, 0.000000) translate(14.999699, 15.000017) scale(-1, -1) rotate(-90.000000) translate(-14.999699, -15.000017)"/>
                </g>
            </g>
        </g>
    </g>
</svg>
