<svg xmlns="http://www.w3.org/2000/svg" width="35" height="35" viewBox="0 0 35 35">
    <defs>
        <filter id="8lxm713hxa" color-interpolation-filters="auto">
            <feColorMatrix in="SourceGraphic" values="0 0 0 0 0.301961 0 0 0 0 0.301961 0 0 0 0 0.301961 0 0 0 0.501106 0"/>
        </filter>
    </defs>
    <g fill="none" fill-rule="evenodd">
        <g>
            <g>
                <g filter="url(#8lxm713hxa)" transform="translate(-157.000000, -1288.000000) translate(165.000000, 1084.000000) translate(1.000000, 174.000000)">
                    <g>
                        <path fill="#4D4D4D" d="M17.793 9.412l10.878 13.845c.512.652.399 1.595-.253 2.106-.264.208-.59.321-.926.321H5.736c-.829 0-1.5-.672-1.5-1.5 0-.336.112-.662.32-.927L15.434 9.412c.512-.651 1.455-.764 2.106-.252.094.074.18.158.253.252z" transform="translate(8.411255, 47.183983) rotate(-270.000000) translate(-8.411255, -47.183983) translate(-8.588745, 30.183983) translate(16.613636, 16.797619) rotate(-180.000000) translate(-16.613636, -16.797619)"/>
                    </g>
                </g>
            </g>
        </g>
    </g>
</svg>
