<svg width="24" height="24" xmlns="http://www.w3.org/2000/svg">
    <path d="M9.034 5.002c.06.004.076.003.136.013a1.003 1.003 0 0 1 .537.279l6 6c.042.044.053.054.09.103a1.001 1.001 0 0 1 0 1.208c-.037.049-.048.059-.09.103l-6 6c-.044.042-.054.053-.103.09a1.003 1.003 0 0 1-1.033.106 1.003 1.003 0 0 1-.367-1.507c.036-.048.047-.058.089-.103l5.293-5.293-5.293-5.293-.047-.05c-.038-.047-.049-.058-.082-.109a1.002 1.002 0 0 1 .666-1.534c.06-.01.075-.01.136-.013h.068z" fill="#005AA2" fill-rule="evenodd"/>
</svg>
