<svg xmlns="http://www.w3.org/2000/svg" width="24" height="24" viewBox="0 0 24 24">
    <defs>
        <filter id="pbx4rrrzia" color-interpolation-filters="auto">
            <feColorMatrix in="SourceGraphic" values="0 0 0 0 1.000000 0 0 0 0 1.000000 0 0 0 0 1.000000 0 0 0 1.000000 0"/>
        </filter>
    </defs>
    <g fill="none" fill-rule="evenodd" stroke-linecap="round" stroke-linejoin="round">
        <g>
            <g filter="url(#pbx4rrrzia)" transform="translate(-367.000000, -494.000000) translate(345.000000, 258.000000)">
                <g>
                    <g stroke="#555" stroke-width="1.5">
                        <path d="M12.364 20c0 1.556-1.303 2.91-2.903 2.91h-.003c-1.602-.002-2.913-1.354-2.913-2.91M9.477 20h8.51c.792 0 1.215-1.078.69-1.76l-1.242-1.612c-.295-.384-.52-.844-.52-1.314v-3.695c0-2.172-.6-4.165-1.71-5.724-.186-.264-.387-.514-.599-.752l-.038-.042c-.91-1.008-2.028-1.765-3.275-2.176l-.364-.13V1.347C10.929.603 10.267 0 9.455 0 8.642 0 7.98.603 7.98 1.347v1.448l-.365.13c-1.247.411-2.365 1.168-3.274 2.176-.013.014-.026.029-.04.042-.21.238-.412.488-.598.752-1.11 1.559-1.709 3.552-1.709 5.724v3.695c0 .47-.225.93-.521 1.314L.232 18.24C-.292 18.922.13 20 .922 20h8.555z" transform="translate(22.000000, 236.000000) translate(2.545455, 0.727273)"/>
                    </g>
                </g>
            </g>
        </g>
    </g>
</svg>
