<svg xmlns="http://www.w3.org/2000/svg" width="30" height="30" viewBox="0 0 30 30">
    <defs>
        <filter id="f09o9dmhga" color-interpolation-filters="auto">
            <feColorMatrix in="SourceGraphic" values="0 0 0 0 1.000000 0 0 0 0 1.000000 0 0 0 0 1.000000 0 0 0 1.000000 0"/>
        </filter>
    </defs>
    <g fill="none" fill-rule="evenodd">
        <g transform="translate(-355.000000, -21.000000)">
            <g>
                <path fill="#d60013" d="M14.21 16.768l-6.964 6.617c-.066.058-.132.114-.208.16-.15.095-.321.158-.499.188-.078.012-.099.012-.178.017h-.09c-.08-.005-.1-.005-.179-.017-.147-.025-.29-.073-.421-.143-.105-.056-.2-.125-.286-.205-.256-.244-.397-.583-.384-.927.004-.114.024-.227.06-.336.046-.135.116-.263.206-.377.049-.06.064-.073.118-.128L12.35 15 5.385 8.384c-.054-.055-.07-.068-.118-.129-.09-.113-.16-.241-.205-.377-.055-.163-.073-.336-.055-.506.046-.43.333-.815.744-1 .108-.05.223-.084.341-.104.148-.024.3-.024.447 0 .207.034.405.115.572.236.064.046.077.06.135.112l6.965 6.616 6.965-6.616c.058-.052.071-.066.135-.112.12-.086.254-.152.397-.195.171-.052.354-.07.533-.052.149.014.295.053.43.114.108.049.21.112.3.187.343.284.509.728.432 1.154-.036.197-.122.384-.249.543-.048.06-.063.074-.118.129L16.072 15l6.964 6.617c.055.055.07.068.118.128.091.114.16.242.206.377.036.11.057.222.061.336.012.344-.129.683-.385.927-.084.08-.18.15-.285.205-.13.07-.274.118-.421.143-.08.012-.1.012-.179.017h-.09c-.08-.005-.1-.005-.179-.017-.177-.03-.347-.093-.498-.187-.076-.047-.142-.103-.208-.161l-6.965-6.617z" transform="translate(355.000000, 21.000000)"/>
            </g>
        </g>
    </g>
</svg>
