<svg xmlns="http://www.w3.org/2000/svg" xmlns:xlink="http://www.w3.org/1999/xlink" width="22" height="22" viewBox="0 0 22 22">
    <defs>
        <filter id="dlbcm6q96a" color-interpolation-filters="auto">
            <feColorMatrix in="SourceGraphic" values="0 0 0 0 0.000000 0 0 0 0 0.352941 0 0 0 0 0.635294 0 0 0 1.000000 0"/>
        </filter>
        <filter id="ia6v6gorib" color-interpolation-filters="auto">
            <feColorMatrix in="SourceGraphic" values="0 0 0 0 1.000000 0 0 0 0 1.000000 0 0 0 0 1.000000 0 0 0 1.000000 0"/>
        </filter>
        <path id="e26tt9h2bc" d="M0 0L22 0 22 21.083 0 21.083z"/>
    </defs>
    <g fill="none" fill-rule="evenodd">
        <g>
            <g>
                <g filter="url(#dlbcm6q96a)" transform="translate(-31.000000, -499.000000) translate(0.000000, 363.000000) translate(31.000000, 136.000000)">
                    <g filter="url(#ia6v6gorib)">
                        <g transform="translate(0.000000, 0.916667)">
                            <mask id="jrj6jx0q9d" fill="#fff">
                                <use xlink:href="#e26tt9h2bc"/>
                            </mask>
                            <path fill="#4D4D4D" d="M2.872 10.662c0-1.215.985-2.204 2.195-2.204s2.195.989 2.195 2.204c0 1.215-.984 2.203-2.195 2.203-1.21 0-2.195-.988-2.195-2.203M15.77 9.025h.497c.228 0 .414-.186.414-.415V4.2c.476-.35 1.19-.448 1.944-.55 1.042-.142 2.223-.303 3.222-1.12.132-.107.185-.287.133-.448-.052-.164-.196-.278-.368-.288-1.517-.093-2.274-.563-2.942-.977C18.046.43 17.4.029 16.309.001L16.267 0c-.04 0-.074.008-.102.016l-.051.015c-.032.012-.061.03-.092.052l-.046.038c-.039.039-.07.084-.089.132-.018.043-.023.082-.022.083l-.011 7.859h-.084c-1.576 0-2.858 1.287-2.858 2.869 0 1.582 1.282 2.87 2.858 2.87h2.78c.54 0 .981.441.981.984 0 .544-.44.985-.981.985h-5.027c-1.422 0-2.58 1.162-2.58 2.59 0 .97-.787 1.76-1.753 1.76h-3.3c.47-.656 1.167-1.68 1.863-2.898 1.58-2.764 2.381-5.13 2.381-7.03 0-2.673-2.273-4.848-5.067-4.848S0 7.652 0 10.325c0 1.855.801 4.206 2.381 6.988 1.143 2.012 2.309 3.544 2.357 3.606l.047.05c.018.017.037.031.053.041l.056.034c.036.017.073.028.115.034l4.18.005c1.423 0 2.58-1.161 2.58-2.59 0-.97.787-1.76 1.754-1.76h5.027c.997 0 1.808-.814 1.808-1.815 0-1-.811-1.815-1.808-1.815h-2.78c-1.12 0-2.031-.915-2.031-2.039s.911-2.039 2.031-2.039" mask="url(#jrj6jx0q9d)"/>
                        </g>
                    </g>
                </g>
            </g>
        </g>
    </g>
</svg>
