<?xml version="1.0" encoding="UTF-8"?>
<svg width="60px" height="60px" viewBox="0 0 60 60" version="1.1" xmlns="http://www.w3.org/2000/svg" xmlns:xlink="http://www.w3.org/1999/xlink">
    <title>C2380686-3F70-4247-8F6F-ED3E33EB1939</title>
    <defs>
        <linearGradient x1="38.2403154%" y1="32.7449375%" x2="110.335071%" y2="100%" id="linearGradient-1">
            <stop stop-color="#005AA2" offset="0%"></stop>
            <stop stop-color="#4DBBC6" offset="100%"></stop>
        </linearGradient>
        <filter color-interpolation-filters="auto" id="filter-2">
            <feColorMatrix in="SourceGraphic" type="matrix" values="0 0 0 0 1.000000 0 0 0 0 1.000000 0 0 0 0 1.000000 0 0 0 1.000000 0"></feColorMatrix>
        </filter>
        <polygon id="path-3" points="1.00077005e-15 0 40 0 40 12.8040158 1.00077005e-15 12.8040158"></polygon>
        <filter color-interpolation-filters="auto" id="filter-5">
            <feColorMatrix in="SourceGraphic" type="matrix" values="0 0 0 0 1.000000 0 0 0 0 1.000000 0 0 0 0 1.000000 0 0 0 1.000000 0"></feColorMatrix>
        </filter>
        <polygon id="path-6" points="0 0 11.8411935 0 11.8411935 21.3678387 0 21.3678387"></polygon>
    </defs>
    <g id="Content-Detail-Opt-1" stroke="none" stroke-width="1" fill="none" fill-rule="evenodd">
        <g id="Desktop.Content.Detail.Aboriginal-Health-Wellness2" transform="translate(-357.000000, -1346.000000)">
            <g id="icon" transform="translate(357.000000, 1346.000000)">
                <rect id="bg" fill="url(#linearGradient-1)" x="0" y="0" width="60" height="60" rx="4"></rect>
                <g filter="url(#filter-2)" id="Group-3">
                    <g transform="translate(10.000000, 32.000000)">
                        <mask id="mask-4" fill="white">
                            <use xlink:href="#path-3"></use>
                        </mask>
                        <g id="Clip-2"></g>
                        <path d="M3.14762337,12.8040158 C1.41183894,12.8040158 1.00077005e-15,11.3831627 1.00077005e-15,9.63611063 L1.00077005e-15,0 L1.92737579,0 L1.92737579,9.63611063 C1.92737579,10.6462572 2.11663164,11.0526009 3.14762337,11.0526009 L36.8520386,11.0526009 C37.9190869,11.0526009 38.0970764,10.6811869 38.0970764,9.63611063 L38.0970764,0 L40.0002254,0 L40.0002254,9.63611063 C40.0002254,11.3831627 38.587823,12.8040158 36.8520386,12.8040158 L3.14762337,12.8040158 Z" id="Fill-1" fill="#15477D" mask="url(#mask-4)"></path>
                    </g>
                </g>
                <g filter="url(#filter-5)" id="Group-6">
                    <g transform="translate(24.000000, 11.000000)">
                        <mask id="mask-7" fill="white">
                            <use xlink:href="#path-6"></use>
                        </mask>
                        <g id="Clip-5"></g>
                        <path d="M5.51496065,21.1988237 L0,16.3762613 L0.945045471,15.3982276 L4.99642944,18.6103172 L4.99642944,-0.000169015037 L6.93860626,-0.000169015037 L6.93860626,18.6103172 L10.9339142,15.3982276 L11.8411935,16.3762613 L6.30369749,21.2174153 C6.17693621,21.3441766 6.02651283,21.3678387 5.92059674,21.3678387 C5.79834253,21.3678387 5.68735599,21.3396695 5.51496065,21.1988237 Z" id="Fill-4" fill="#15477D" mask="url(#mask-7)"></path>
                    </g>
                </g>
            </g>
        </g>
    </g>
</svg>