<svg xmlns="http://www.w3.org/2000/svg" xmlns:xlink="http://www.w3.org/1999/xlink" width="24" height="24" viewBox="0 0 24 24">
    <defs>
        <filter id="9o9h8q4kla" color-interpolation-filters="auto">
            <feColorMatrix in="SourceGraphic" values="0 0 0 0 1.000000 0 0 0 0 1.000000 0 0 0 0 1.000000 0 0 0 1.000000 0"/>
        </filter>
        <path id="mh1fwo2ifb" d="M0 0L24 0 24 24.001 0 24.001z"/>
    </defs>
    <g fill="none" fill-rule="evenodd">
        <g>
            <g filter="url(#9o9h8q4kla)" transform="translate(-367.000000, -291.000000) translate(345.000000, 258.000000)">
                <g transform="translate(22.000000, 33.000000)">
                    <mask id="yypb3ya4qc" fill="#fff">
                        <use xlink:href="#mh1fwo2ifb"/>
                    </mask>
                    <path fill="#424242" d="M17.26 18.606c.848.391 1.587.906 2.112 1.565-1.412 1.276-3.156 2.19-5.084 2.6 1.154-.955 2.204-2.368 2.972-4.165zm-10.52 0c.767 1.797 1.818 3.21 2.972 4.165-1.928-.41-3.672-1.324-5.085-2.6.526-.659 1.265-1.174 2.113-1.565zm0-13.212c-.848-.39-1.587-.905-2.113-1.565 1.413-1.276 3.157-2.19 5.085-2.6-1.154.955-2.205 2.368-2.972 4.165zm10.52 0c-.768-1.797-1.818-3.21-2.972-4.164 1.928.409 3.672 1.323 5.085 2.6-.526.658-1.265 1.174-2.113 1.564zm-4.766 11.191v-4.09h5.039c-.048 1.793-.36 3.411-.847 4.816-1.349-.461-2.829-.683-4.192-.726zm0 6.187v-5.198c1.223.042 2.592.246 3.833.664-.966 2.24-2.39 3.82-3.833 4.534zm-.989-5.198v5.198c-1.443-.714-2.867-2.293-3.832-4.534 1.242-.418 2.61-.622 3.832-.664zm0-5.08v4.091c-1.362.043-2.842.265-4.19.726-.488-1.405-.8-3.023-.848-4.817h5.038zm0-5.079v4.09H6.467c.049-1.793.36-3.41.847-4.815 1.349.46 2.829.683 4.191.725zm0-6.186v5.197c-1.222-.042-2.59-.246-3.832-.664.965-2.24 2.39-3.82 3.832-4.533zm.99 5.197V1.23c1.442.714 2.867 2.293 3.832 4.533-1.241.418-2.61.622-3.833.664zm0 .99c1.362-.043 2.842-.265 4.191-.726.487 1.404.799 3.022.847 4.815h-5.039v-4.09zm10.504 4.09h-4.477c-.049-1.936-.38-3.676-.905-5.187.97-.44 1.828-1.027 2.462-1.79 1.714 1.851 2.8 4.29 2.92 6.976zM3.92 4.528c.635.763 1.493 1.35 2.463 1.79-.525 1.511-.856 3.251-.905 5.186H1.001c.12-2.686 1.206-5.125 2.92-6.976zm-2.919 7.965h4.477c.049 1.936.38 3.676.905 5.188-.97.44-1.828 1.027-2.462 1.79-1.714-1.852-2.8-4.29-2.92-6.978zm19.078 6.977c-.634-.762-1.492-1.349-2.462-1.79.525-1.51.856-3.251.905-5.187h4.477c-.12 2.687-1.207 5.126-2.92 6.977zM24 12c0-3.34-1.373-6.365-3.583-8.542-.028-.036-.06-.067-.098-.094C18.159 1.284 15.228 0 11.999 0 8.774 0 5.842 1.283 3.684 3.362c-.04.028-.073.06-.101.097C1.372 5.636 0 8.66 0 11.999c0 3.34 1.372 6.363 3.58 8.54.03.039.064.073.106.102 2.158 2.077 5.087 3.359 8.312 3.36h.004c3.225-.001 6.155-1.283 8.313-3.36.04-.03.075-.063.105-.1C22.628 18.362 24 15.338 24 12z" mask="url(#yypb3ya4qc)"/>
                </g>
            </g>
        </g>
    </g>
</svg>
