<svg xmlns="http://www.w3.org/2000/svg" width="20" height="20" viewBox="0 0 20 20">
    <defs>
        <filter id="ezt5nk6u4a" color-interpolation-filters="auto">
            <feColorMatrix in="SourceGraphic" values="0 0 0 0 0.000000 0 0 0 0 0.352941 0 0 0 0 0.635294 0 0 0 1.000000 0"/>
        </filter>
    </defs>
    <g fill="none" fill-rule="evenodd">
        <g>
            <g>
                <g filter="url(#ezt5nk6u4a)" transform="translate(-237.000000, -451.000000) translate(0.000000, 363.000000) translate(237.000000, 86.000000)">
                    <g>
                        <path d="M0 0L20 0 20 20 0 20z" transform="translate(0.000000, 2.000000)"/>
                        <path fill="#FFF" d="M10 0C5.854 0 2.5 3.13 2.5 7c0 5.25 7.5 13 7.5 13s7.5-7.75 7.5-13c0-3.87-3.354-7-7.5-7zm0 10c-1.38 0-2.5-1.12-2.5-2.5S8.62 5 10 5s2.5 1.12 2.5 2.5S11.38 10 10 10z" transform="translate(0.000000, 2.000000)"/>
                    </g>
                </g>
            </g>
        </g>
    </g>
</svg>
