<svg xmlns="http://www.w3.org/2000/svg" width="24" height="24" viewBox="0 0 24 24">
    <defs>
        <filter id="ijrvx33bsa" color-interpolation-filters="auto">
            <feColorMatrix in="SourceGraphic" values="0 0 0 0 1.000000 0 0 0 0 1.000000 0 0 0 0 1.000000 0 0 0 1.000000 0"/>
        </filter>
    </defs>
    <g fill="none" fill-rule="evenodd">
        <g>
            <g filter="url(#ijrvx33bsa)" transform="translate(-367.000000, -391.000000) translate(345.000000, 258.000000)">
                <g>
                    <path d="M0 0L24 0 24 24 0 24z" transform="translate(22.000000, 133.000000)"/>
                    <path fill-rule="nonzero" stroke="#4D4D4D" d="M13 0C8.024 0 4 3.756 4 8.4 4 14.7 13 24 13 24s9-9.3 9-15.6C22 3.756 17.976 0 13 0zm0 12c-1.656 0-3-1.344-3-3s1.344-3 3-3 3 1.344 3 3-1.344 3-3 3z" transform="translate(22.000000, 133.000000)"/>
                </g>
            </g>
        </g>
    </g>
</svg>
