<svg xmlns="http://www.w3.org/2000/svg" width="16" height="15" viewBox="0 0 16 15">
    <defs>
        <filter id="ycotn49tea" color-interpolation-filters="auto">
            <feColorMatrix in="SourceGraphic" values="0 0 0 0 0.000000 0 0 0 0 0.352941 0 0 0 0 0.635294 0 0 0 1.000000 0"/>
        </filter>
    </defs>
    <g fill="none" fill-rule="evenodd">
        <g>
            <g>
                <g>
                    <g>
                        <g filter="url(#ycotn49tea)" transform="translate(-87.000000, -3072.000000) translate(-304.500000, 2564.000000) translate(348.500000, 144.000000) translate(43.000000, 329.398601) translate(0.000000, 30.545455)">
                            <g>
                                <path d="M0 0L15.956 0 15.956 14.098 0 14.098z" transform="translate(0.000000, 4.167832)"/>
                                <path fill="#4E4E56" fill-rule="nonzero" d="M13.629 1.762l-.106.018-3.55 1.216-3.99-1.234-3.75 1.116c-.139.041-.239.147-.239.282v8.882c0 .164.147.294.333.294l.106-.018 3.55-1.216 3.99 1.234 3.749-1.116c.14-.042.24-.147.24-.282V2.056c0-.165-.147-.294-.333-.294zm-3.657 9.399L5.983 9.92V2.937l3.99 1.24v6.984z" transform="translate(0.000000, 4.167832)"/>
                            </g>
                        </g>
                    </g>
                </g>
            </g>
        </g>
    </g>
</svg>
