<svg xmlns="http://www.w3.org/2000/svg" xmlns:xlink="http://www.w3.org/1999/xlink" width="24" height="24" viewBox="0 0 24 24">
    <defs>
        <path id="wp3djqunyb" d="M0 0L24 0 24 8.826 0 8.826z"/>
        <path id="h18l1kbled" d="M0 0L20.128 0 20.128 15.823 0 15.823z"/>
        <path id="btb56tzlnf" d="M0 0L24 0 24 8.826 0 8.826z"/>
        <path id="24jau7dbjh" d="M0 0L20.128 0 20.128 15.823 0 15.823z"/>
        <path id="3uldjkibaj" d="M0 0L24 0 24 8.826 0 8.826z"/>
        <path id="96p1ojsayl" d="M0 0L20.128 0 20.128 15.823 0 15.823z"/>
        <filter id="1z31w7czxa" color-interpolation-filters="auto">
            <feColorMatrix in="SourceGraphic" values="0 0 0 0 1.000000 0 0 0 0 1.000000 0 0 0 0 1.000000 0 0 0 1.000000 0"/>
        </filter>
    </defs>
    <g fill="none" fill-rule="evenodd">
        <g>
            <g>
                <g filter="url(#1z31w7czxa)" transform="translate(-48.000000, -813.000000) translate(0.000000, 652.000000) translate(48.000000, 143.000000)">
                    <g>
                        <g>
                            <path fill="#424242" d="M16.094 15.119c.236 0 .427-.191.427-.427V12.84c0-.236-.191-.427-.427-.427s-.427.19-.427.427v1.852c0 .236.19.427.427.427" transform="translate(-0.000000, 18.000000) translate(0.000000, 2.000000)"/>
                            <g transform="translate(-0.000000, 18.000000) translate(0.000000, 2.000000)">
                                <mask id="u9st8bdgnc" fill="#fff">
                                    <use xlink:href="#wp3djqunyb"/>
                                </mask>
                                <path fill="#424242" d="M22.504 0H1.496C.67 0 0 .67 0 1.496V7.33c0 .825.67 1.496 1.496 1.496h1.907v-.855H1.496c-.354 0-.641-.287-.641-.64V1.495c0-.354.287-.641.64-.641h21.01c.353 0 .64.287.64.64V7.33c0 .354-.287.641-.64.641h-1.908v.855h1.907C23.33 8.826 24 8.155 24 7.33V1.496C24 .67 23.33 0 22.504 0" mask="url(#u9st8bdgnc)"/>
                            </g>
                            <g transform="translate(-0.000000, 18.000000) translate(0.000000, 2.000000) translate(1.935830, 2.389173)">
                                <mask id="1lfro7z40e" fill="#fff">
                                    <use xlink:href="#h18l1kbled"/>
                                </mask>
                                <path fill="#424242" d="M19.273 2.725c0 .349-.283.633-.632.633h-1.049V.855h1.681v1.87zm-2.535 11.602c0 .353-.288.641-.641.641H8.834V.855h7.904v13.472zm-10.254.641h1.495V.855H6.484v14.113zm-.855 0H4.032c-.354 0-.641-.288-.641-.641V.855h2.238v14.113zM2.536 3.358h-1.05c-.348 0-.631-.284-.631-.633V.855h1.68v2.503zm17.592-.633V.427c0-.236-.191-.427-.427-.427H.427C.191 0 0 .191 0 .427v2.298c0 .82.667 1.487 1.487 1.487h1.049v10.115c0 .825.671 1.496 1.496 1.496h12.065c.824 0 1.495-.671 1.495-1.496V4.212h1.05c.819 0 1.486-.667 1.486-1.487z" mask="url(#1lfro7z40e)"/>
                            </g>
                            <path fill="#424242" d="M16.094 11.54c.236 0 .427-.192.427-.428v-1.21c0-.236-.191-.428-.427-.428s-.427.192-.427.428v1.21c0 .236.19.428.427.428" transform="translate(-0.000000, 18.000000) translate(0.000000, 2.000000)"/>
                        </g>
                        <g>
                            <path fill="#424242" d="M16.094 15.119c.236 0 .427-.191.427-.427V12.84c0-.236-.191-.427-.427-.427s-.427.19-.427.427v1.852c0 .236.19.427.427.427" transform="translate(-0.000000, 18.000000) translate(0.000000, 2.000000)"/>
                            <g transform="translate(-0.000000, 18.000000) translate(0.000000, 2.000000)">
                                <mask id="jjm3nqkbpg" fill="#fff">
                                    <use xlink:href="#btb56tzlnf"/>
                                </mask>
                                <path fill="#424242" d="M22.504 0H1.496C.67 0 0 .67 0 1.496V7.33c0 .825.67 1.496 1.496 1.496h1.907v-.855H1.496c-.354 0-.641-.287-.641-.64V1.495c0-.354.287-.641.64-.641h21.01c.353 0 .64.287.64.64V7.33c0 .354-.287.641-.64.641h-1.908v.855h1.907C23.33 8.826 24 8.155 24 7.33V1.496C24 .67 23.33 0 22.504 0" mask="url(#jjm3nqkbpg)"/>
                            </g>
                            <g transform="translate(-0.000000, 18.000000) translate(0.000000, 2.000000) translate(1.935830, 2.389173)">
                                <mask id="v4p17z6uxi" fill="#fff">
                                    <use xlink:href="#24jau7dbjh"/>
                                </mask>
                                <path fill="#424242" d="M19.273 2.725c0 .349-.283.633-.632.633h-1.049V.855h1.681v1.87zm-2.535 11.602c0 .353-.288.641-.641.641H8.834V.855h7.904v13.472zm-10.254.641h1.495V.855H6.484v14.113zm-.855 0H4.032c-.354 0-.641-.288-.641-.641V.855h2.238v14.113zM2.536 3.358h-1.05c-.348 0-.631-.284-.631-.633V.855h1.68v2.503zm17.592-.633V.427c0-.236-.191-.427-.427-.427H.427C.191 0 0 .191 0 .427v2.298c0 .82.667 1.487 1.487 1.487h1.049v10.115c0 .825.671 1.496 1.496 1.496h12.065c.824 0 1.495-.671 1.495-1.496V4.212h1.05c.819 0 1.486-.667 1.486-1.487z" mask="url(#v4p17z6uxi)"/>
                            </g>
                            <path fill="#424242" d="M16.094 11.54c.236 0 .427-.192.427-.428v-1.21c0-.236-.191-.428-.427-.428s-.427.192-.427.428v1.21c0 .236.19.428.427.428" transform="translate(-0.000000, 18.000000) translate(0.000000, 2.000000)"/>
                        </g>
                        <g>
                            <path fill="#424242" d="M16.094 15.119c.236 0 .427-.191.427-.427V12.84c0-.236-.191-.427-.427-.427s-.427.19-.427.427v1.852c0 .236.19.427.427.427" transform="translate(-0.000000, 18.000000) translate(0.000000, 2.000000)"/>
                            <g transform="translate(-0.000000, 18.000000) translate(0.000000, 2.000000)">
                                <mask id="4yevkjj5xk" fill="#fff">
                                    <use xlink:href="#3uldjkibaj"/>
                                </mask>
                                <path fill="#424242" d="M22.504 0H1.496C.67 0 0 .67 0 1.496V7.33c0 .825.67 1.496 1.496 1.496h1.907v-.855H1.496c-.354 0-.641-.287-.641-.64V1.495c0-.354.287-.641.64-.641h21.01c.353 0 .64.287.64.64V7.33c0 .354-.287.641-.64.641h-1.908v.855h1.907C23.33 8.826 24 8.155 24 7.33V1.496C24 .67 23.33 0 22.504 0" mask="url(#4yevkjj5xk)"/>
                            </g>
                            <g transform="translate(-0.000000, 18.000000) translate(0.000000, 2.000000) translate(1.935830, 2.389173)">
                                <mask id="92q4m0nljm" fill="#fff">
                                    <use xlink:href="#96p1ojsayl"/>
                                </mask>
                                <path fill="#424242" d="M19.273 2.725c0 .349-.283.633-.632.633h-1.049V.855h1.681v1.87zm-2.535 11.602c0 .353-.288.641-.641.641H8.834V.855h7.904v13.472zm-10.254.641h1.495V.855H6.484v14.113zm-.855 0H4.032c-.354 0-.641-.288-.641-.641V.855h2.238v14.113zM2.536 3.358h-1.05c-.348 0-.631-.284-.631-.633V.855h1.68v2.503zm17.592-.633V.427c0-.236-.191-.427-.427-.427H.427C.191 0 0 .191 0 .427v2.298c0 .82.667 1.487 1.487 1.487h1.049v10.115c0 .825.671 1.496 1.496 1.496h12.065c.824 0 1.495-.671 1.495-1.496V4.212h1.05c.819 0 1.486-.667 1.486-1.487z" mask="url(#92q4m0nljm)"/>
                            </g>
                            <path fill="#424242" d="M16.094 11.54c.236 0 .427-.192.427-.428v-1.21c0-.236-.191-.428-.427-.428s-.427.192-.427.428v1.21c0 .236.19.428.427.428" transform="translate(-0.000000, 18.000000) translate(0.000000, 2.000000)"/>
                        </g>
                    </g>
                </g>
            </g>
        </g>
    </g>
</svg>
