<?xml version="1.0" encoding="UTF-8"?>
<svg width="50px" height="50px" viewBox="0 0 50 50" version="1.1" xmlns="http://www.w3.org/2000/svg" xmlns:xlink="http://www.w3.org/1999/xlink">
    <title>428EAD89-28F6-4AC2-B746-5674B85DB649</title>
    <defs>
        <linearGradient x1="100%" y1="100%" x2="24.565918%" y2="29.715332%" id="linearGradient-1">
            <stop stop-color="#4DBBC6" offset="0%"></stop>
            <stop stop-color="#005AA2" offset="100%"></stop>
        </linearGradient>
        <filter color-interpolation-filters="auto" id="filter-2">
            <feColorMatrix in="SourceGraphic" type="matrix" values="0 0 0 0 0.000000 0 0 0 0 0.352941 0 0 0 0 0.635294 0 0 0 1.000000 0"></feColorMatrix>
        </filter>
        <filter color-interpolation-filters="auto" id="filter-3">
            <feColorMatrix in="SourceGraphic" type="matrix" values="0 0 0 0 0.000000 0 0 0 0 0.352941 0 0 0 0 0.635294 0 0 0 1.000000 0"></feColorMatrix>
        </filter>
    </defs>
    <g id="Content-Detail-Opt-1" stroke="none" stroke-width="1" fill="none" fill-rule="evenodd">
        <g id="Desktop.Content.Detail.Aboriginal-Health-Wellness" transform="translate(-359.000000, -4224.000000)">
            <g id="Group-4" transform="translate(359.000000, 4224.000000)">
                <g id="icon" fill="#FFFFFF" stroke="url(#linearGradient-1)" stroke-width="2">
                    <rect id="bg" x="1" y="1" width="48" height="48" rx="4"></rect>
                </g>
                <g filter="url(#filter-2)" id="icon">
                    <g transform="translate(5.000000, 12.500000)">
                        <path d="M15.9350077,13.7837864 C15.9350077,16.2433489 17.6561258,17.8098424 19.9975077,17.8098424 C22.3756205,17.8098424 24.0600077,16.2433489 24.0600077,13.7837864 C24.0600077,11.3630502 22.3612165,9.68484243 19.9831038,9.68484243 C17.6813094,9.68484243 15.9350077,11.4039867 15.9350077,13.7837864 Z M27.5,5.26561064 C27.5,7.72517314 29.221118,9.29166667 31.5625,9.29166667 C33.9406127,9.29166667 35.625,7.72517314 35.625,5.26561064 C35.625,2.84487446 33.9262088,1.16666667 31.5480961,1.16666667 C29.2463017,1.16666667 27.5,2.8858109 27.5,5.26561064 Z M4.29166667,5.26561064 C4.29166667,7.72517314 6.0127847,9.29166667 8.35416667,9.29166667 C10.7322794,9.29166667 12.4166667,7.72517314 12.4166667,5.26561064 C12.4166667,2.84487446 10.7178754,1.16666667 8.33976272,1.16666667 C6.03796836,1.16666667 4.29166667,2.8858109 4.29166667,5.26561064 Z M27.2209549,25 C27.012033,21.5540287 24.3049197,19.1498152 20.8516121,19.1498152 L18.914566,19.1498152 C15.460852,19.1498152 12.9018443,21.5540287 12.6933289,25 L11.6000406,25 C11.7622193,21.9611391 13.7347831,19.3126803 16.6105071,18.3313772 L17.3177523,18.0901267 L16.731633,17.6255563 C15.568743,16.7053809 14.8745046,15.3002316 14.8745046,13.7268051 C13.6567422,11.9312812 11.538192,10.6323719 9.35467402,10.6323719 L7.38409678,10.6323719 C3.89664632,10.6323719 1.33508012,13.0532055 1.1225001,16.4620927 L0,16.4620927 C0.164617417,13.4631685 2.13636826,10.8416059 5.01046642,9.86071039 L5.69210446,9.62801767 L5.14134742,9.16303976 C3.97236053,8.17603143 3.27446398,6.68410843 3.27446398,5.17221706 C3.27446398,2.32040687 5.55837821,0 8.36622294,0 C11.2110558,0 13.5250483,2.32040687 13.5250483,5.17221706 C13.5250483,6.68451595 12.8271517,8.17603143 11.6581648,9.16303976 L11.0793619,9.65165371 L11.8053043,9.8656006 C12.8112997,10.1622736 13.7685195,10.7613249 14.6501372,11.6452312 L15.0549741,12.051119 L15.3033228,11.5343864 C16.180063,9.71400394 18.0103648,8.53790731 19.9666701,8.53790731 C21.9941063,8.53790731 23.8065237,9.68588521 24.6962707,11.5343864 L24.9560004,12.0735325 L25.3612438,11.6334132 C26.1209227,10.8081895 27.1273245,10.1806119 28.1946957,9.8656006 L28.8519459,9.67162208 L27.9650442,8.7836406 C27.017986,7.8337164 26.4745453,6.51743362 26.4745453,5.17221706 C26.4745453,2.32040687 28.758866,0 31.5667107,0 C34.4111371,0 36.725536,2.32040687 36.725536,5.17221706 C36.725536,6.70692943 36.0451174,8.16136078 34.8586526,9.16303976 L34.3119602,9.62435001 L34.9866883,9.85948783 C37.8615994,10.8623894 39.8341632,13.4835444 40,16.4620927 L38.8883654,16.4620927 C38.6778177,13.0532055 35.9049,10.6323719 32.4524053,10.6323719 L30.5318451,10.6323719 C28.3901928,10.6323719 26.3432578,11.8473601 25.1250889,13.6428839 L25.1250889,13.8184416 L25.1250889,13.6428839 C25.1250889,15.2224233 24.4796261,16.6026864 23.2586119,17.6337066 L22.7119195,18.0950169 L23.3866477,18.3301547 C26.2164414,19.317163 28.2296515,22.0226743 28.3991464,25 L27.2209549,25 Z" id="Fill-1" fill="#15477D"></path>
                    </g>
                </g>
                <g filter="url(#filter-3)" id="icon">
                    <g transform="translate(5.000000, 12.500000)">
                        <path d="M15.9350077,13.7837864 C15.9350077,16.2433489 17.6561258,17.8098424 19.9975077,17.8098424 C22.3756205,17.8098424 24.0600077,16.2433489 24.0600077,13.7837864 C24.0600077,11.3630502 22.3612165,9.68484243 19.9831038,9.68484243 C17.6813094,9.68484243 15.9350077,11.4039867 15.9350077,13.7837864 Z M27.5,5.26561064 C27.5,7.72517314 29.221118,9.29166667 31.5625,9.29166667 C33.9406127,9.29166667 35.625,7.72517314 35.625,5.26561064 C35.625,2.84487446 33.9262088,1.16666667 31.5480961,1.16666667 C29.2463017,1.16666667 27.5,2.8858109 27.5,5.26561064 Z M4.29166667,5.26561064 C4.29166667,7.72517314 6.0127847,9.29166667 8.35416667,9.29166667 C10.7322794,9.29166667 12.4166667,7.72517314 12.4166667,5.26561064 C12.4166667,2.84487446 10.7178754,1.16666667 8.33976272,1.16666667 C6.03796836,1.16666667 4.29166667,2.8858109 4.29166667,5.26561064 Z M27.2209549,25 C27.012033,21.5540287 24.3049197,19.1498152 20.8516121,19.1498152 L18.914566,19.1498152 C15.460852,19.1498152 12.9018443,21.5540287 12.6933289,25 L11.6000406,25 C11.7622193,21.9611391 13.7347831,19.3126803 16.6105071,18.3313772 L17.3177523,18.0901267 L16.731633,17.6255563 C15.568743,16.7053809 14.8745046,15.3002316 14.8745046,13.7268051 C13.6567422,11.9312812 11.538192,10.6323719 9.35467402,10.6323719 L7.38409678,10.6323719 C3.89664632,10.6323719 1.33508012,13.0532055 1.1225001,16.4620927 L0,16.4620927 C0.164617417,13.4631685 2.13636826,10.8416059 5.01046642,9.86071039 L5.69210446,9.62801767 L5.14134742,9.16303976 C3.97236053,8.17603143 3.27446398,6.68410843 3.27446398,5.17221706 C3.27446398,2.32040687 5.55837821,0 8.36622294,0 C11.2110558,0 13.5250483,2.32040687 13.5250483,5.17221706 C13.5250483,6.68451595 12.8271517,8.17603143 11.6581648,9.16303976 L11.0793619,9.65165371 L11.8053043,9.8656006 C12.8112997,10.1622736 13.7685195,10.7613249 14.6501372,11.6452312 L15.0549741,12.051119 L15.3033228,11.5343864 C16.180063,9.71400394 18.0103648,8.53790731 19.9666701,8.53790731 C21.9941063,8.53790731 23.8065237,9.68588521 24.6962707,11.5343864 L24.9560004,12.0735325 L25.3612438,11.6334132 C26.1209227,10.8081895 27.1273245,10.1806119 28.1946957,9.8656006 L28.8519459,9.67162208 L27.9650442,8.7836406 C27.017986,7.8337164 26.4745453,6.51743362 26.4745453,5.17221706 C26.4745453,2.32040687 28.758866,0 31.5667107,0 C34.4111371,0 36.725536,2.32040687 36.725536,5.17221706 C36.725536,6.70692943 36.0451174,8.16136078 34.8586526,9.16303976 L34.3119602,9.62435001 L34.9866883,9.85948783 C37.8615994,10.8623894 39.8341632,13.4835444 40,16.4620927 L38.8883654,16.4620927 C38.6778177,13.0532055 35.9049,10.6323719 32.4524053,10.6323719 L30.5318451,10.6323719 C28.3901928,10.6323719 26.3432578,11.8473601 25.1250889,13.6428839 L25.1250889,13.8184416 L25.1250889,13.6428839 C25.1250889,15.2224233 24.4796261,16.6026864 23.2586119,17.6337066 L22.7119195,18.0950169 L23.3866477,18.3301547 C26.2164414,19.317163 28.2296515,22.0226743 28.3991464,25 L27.2209549,25 Z" id="Fill-1" fill="#15477D"></path>
                    </g>
                </g>
            </g>
        </g>
    </g>
</svg>