<?xml version="1.0" encoding="UTF-8"?>
<svg width="60px" height="60px" viewBox="0 0 60 60" version="1.1" xmlns="http://www.w3.org/2000/svg" xmlns:xlink="http://www.w3.org/1999/xlink">
    <title>1147CFA5-B30F-48BA-BCC3-A19682AAD2FB</title>
    <defs>
        <linearGradient x1="38.2403154%" y1="32.7449375%" x2="110.335071%" y2="100%" id="linearGradient-1">
            <stop stop-color="#005AA2" offset="0%"></stop>
            <stop stop-color="#4DBBC6" offset="100%"></stop>
        </linearGradient>
        <filter color-interpolation-filters="auto" id="filter-2">
            <feColorMatrix in="SourceGraphic" type="matrix" values="0 0 0 0 1.000000 0 0 0 0 1.000000 0 0 0 0 1.000000 0 0 0 1.000000 0"></feColorMatrix>
        </filter>
    </defs>
    <g id="Content-Detail-Opt-1" stroke="none" stroke-width="1" fill="none" fill-rule="evenodd">
        <g id="Desktop.Content.Detail.Aboriginal-Health-Wellness2" transform="translate(-359.000000, -3320.000000)">
            <g id="Group-4" transform="translate(359.000000, 3320.000000)">
                <g id="icon" fill="url(#linearGradient-1)">
                    <rect id="bg" x="0" y="0" width="60" height="60" rx="4"></rect>
                </g>
                <g filter="url(#filter-2)" id="icon">
                    <g transform="translate(6.000000, 15.000000)">
                        <path d="M19.1220093,16.5405437 C19.1220093,19.4920187 21.1873509,21.3718109 23.9970093,21.3718109 C26.8507445,21.3718109 28.8720093,19.4920187 28.8720093,16.5405437 C28.8720093,13.6356603 26.8334598,11.6218109 23.9797245,11.6218109 C21.2175713,11.6218109 19.1220093,13.684784 19.1220093,16.5405437 Z M33,6.31873277 C33,9.27020777 35.0653416,11.15 37.875,11.15 C40.7287353,11.15 42.75,9.27020777 42.75,6.31873277 C42.75,3.41384936 40.7114505,1.4 37.8577153,1.4 C35.095562,1.4 33,3.46297308 33,6.31873277 Z M5.15,6.31873277 C5.15,9.27020777 7.21534164,11.15 10.025,11.15 C12.8787353,11.15 14.9,9.27020777 14.9,6.31873277 C14.9,3.41384936 12.8614505,1.4 10.0077153,1.4 C7.24556203,1.4 5.15,3.46297308 5.15,6.31873277 Z M32.6651459,30 C32.4144396,25.8648345 29.1659036,22.9797783 25.0219345,22.9797783 L22.6974792,22.9797783 C18.5530224,22.9797783 15.4822131,25.8648345 15.2319946,30 L13.9200488,30 C14.1146631,26.3533669 16.4817397,23.1752164 19.9326085,21.9976527 L20.7813027,21.708152 L20.0779596,21.1506675 C18.6824916,20.046457 17.8494055,18.3602779 17.8494055,16.4721661 C16.3880906,14.3175375 13.8458303,12.7588463 11.2256088,12.7588463 L8.86091614,12.7588463 C4.67597558,12.7588463 1.60209615,15.6638466 1.34700012,19.7545112 L0,19.7545112 C0.1975409,16.1558022 2.56364191,13.0099271 6.0125597,11.8328525 L6.83052535,11.5536212 L6.16961691,10.9956477 C4.76683264,9.81123771 3.92935677,8.02093012 3.92935677,6.20666047 C3.92935677,2.78448824 6.67005386,0 10.0394675,0 C13.4532669,0 16.2300579,2.78448824 16.2300579,6.20666047 C16.2300579,8.02141914 15.3925821,9.81123771 13.9897978,10.9956477 L13.2952342,11.5819844 L14.1663652,11.8387207 C15.3735596,12.1947283 16.5222234,12.9135899 17.5801646,13.9742775 L18.0659689,14.4613429 L18.3639874,13.8412636 C19.4160756,11.6568047 21.6124378,10.2454888 23.9600041,10.2454888 C26.3929275,10.2454888 28.5678285,11.6230623 29.6355248,13.8412636 L29.9472005,14.488239 L30.4334925,13.9600958 C31.3451072,12.9698274 32.5527894,12.2167343 33.8336348,11.8387207 L34.6223351,11.6059465 L33.558053,10.5403687 C32.4215832,9.40045968 31.7694543,7.82092034 31.7694543,6.20666047 C31.7694543,2.78448824 34.5106392,0 37.8800528,0 C41.2933645,0 44.0706432,2.78448824 44.0706432,6.20666047 C44.0706432,8.04831532 43.2541408,9.79363294 41.8303831,10.9956477 L41.1743522,11.54922 L41.984026,11.8313854 C45.4339193,13.0348672 47.8009958,16.1802533 48,19.7545112 L46.6660385,19.7545112 C46.4133813,15.6638466 43.08588,12.7588463 38.9428864,12.7588463 L36.6382141,12.7588463 C34.0682314,12.7588463 31.6119094,14.2168321 30.1501067,16.3714607 L30.1501067,16.58213 L30.1501067,16.3714607 C30.1501067,18.2669079 29.3755513,19.9232236 27.9103343,21.1604479 L27.2543034,21.7140202 L28.0639772,21.9961856 C31.4597297,23.1805956 33.8755817,26.4272092 34.0789757,30 L32.6651459,30 Z" id="Fill-1" fill="#15477D"></path>
                    </g>
                </g>
            </g>
        </g>
    </g>
</svg>