<svg xmlns="http://www.w3.org/2000/svg" width="16" height="15" viewBox="0 0 16 15">
    <defs>
        <filter id="41khc0cg6a" color-interpolation-filters="auto">
            <feColorMatrix in="SourceGraphic" values="0 0 0 0 0.000000 0 0 0 0 0.352941 0 0 0 0 0.635294 0 0 0 1.000000 0"/>
        </filter>
    </defs>
    <g fill="none" fill-rule="evenodd">
        <g>
            <g>
                <g>
                    <g filter="url(#41khc0cg6a)" transform="translate(-87.000000, -3041.000000) translate(-304.500000, 2564.000000) translate(348.500000, 144.000000) translate(43.000000, 329.398601)">
                        <g>
                            <path d="M0 0L15.956 0 15.956 14.098 0 14.098z" transform="translate(0.000000, 4.167832)"/>
                            <path fill="#4E4E56" fill-rule="nonzero" d="M4.401 6.338c.958 1.663 2.5 3.02 4.381 3.871l1.463-1.292c.18-.159.445-.212.678-.141.745.217 1.55.335 2.374.335.365 0 .664.264.664.587v2.05c0 .323-.299.588-.664.588-6.243 0-11.303-4.47-11.303-9.986 0-.323.3-.588.665-.588h2.327c.366 0 .665.265.665.588 0 .734.133 1.439.379 2.097.073.205.02.434-.166.599L4.4 6.338z" transform="translate(0.000000, 4.167832)"/>
                        </g>
                    </g>
                </g>
            </g>
        </g>
    </g>
</svg>
