<?xml version="1.0" encoding="UTF-8"?>
<svg width="50px" height="50px" viewBox="0 0 50 50" version="1.1" xmlns="http://www.w3.org/2000/svg" xmlns:xlink="http://www.w3.org/1999/xlink">
    <title>193336D4-E433-43DF-9A5C-1C7E86124463</title>
    <defs>
        <linearGradient x1="100%" y1="100%" x2="24.565918%" y2="29.715332%" id="linearGradient-1">
            <stop stop-color="#4DBBC6" offset="0%"></stop>
            <stop stop-color="#005AA2" offset="100%"></stop>
        </linearGradient>
        <filter color-interpolation-filters="auto" id="filter-2">
            <feColorMatrix in="SourceGraphic" type="matrix" values="0 0 0 0 0.000000 0 0 0 0 0.352941 0 0 0 0 0.635294 0 0 0 1.000000 0"></feColorMatrix>
        </filter>
        <polygon id="path-3" points="0 0 36.6666667 0 36.6666667 35.1388889 0 35.1388889"></polygon>
    </defs>
    <g id="Content-Detail-Opt-1" stroke="none" stroke-width="1" fill="none" fill-rule="evenodd">
        <g id="Desktop.Content.Detail.Aboriginal-Health-Wellness" transform="translate(-736.000000, -4224.000000)">
            <g id="Group-4" transform="translate(736.000000, 4224.000000)">
                <g id="icon" fill="#FFFFFF" stroke="url(#linearGradient-1)" stroke-width="2">
                    <rect id="bg" x="1" y="1" width="48" height="48" rx="4"></rect>
                </g>
                <g filter="url(#filter-2)" id="Group-10">
                    <g transform="translate(6.666667, 5.000000)">
                        <path d="M18.3333333,26.2719761 C16.4000535,26.2719761 15.6467267,26.9768812 15.6467267,28.7860408 C15.6467267,33.1532613 15.9982792,36.2354079 16.6915469,37.9459388 C17.1896228,39.1754132 17.6892519,39.4224684 18.3333333,39.4224684 C18.9743083,39.4224684 19.4371771,38.974288 19.8824424,37.9241825 C20.6368047,36.1430643 21.0194222,33.0686533 21.0194222,28.7860408 C21.0194222,26.9768812 20.2666132,26.2719761 18.3333333,26.2719761 M18.3333333,40.4861111 C16.44458,40.4861111 14.5138889,39.0961234 14.5138889,28.7860408 C14.5138889,26.3788238 15.7632205,25.2083333 18.3333333,25.2083333 C20.9034461,25.2083333 22.1527778,26.3788238 22.1527778,28.7860408 C22.1527778,36.6589311 20.9034461,40.4861111 18.3333333,40.4861111" id="Fill-1" fill="#15477D"></path>
                        <path d="M24.4004939,25.2083333 C26.7230274,23.305951 27.9234126,20.5604011 27.9234126,17.5694444 C27.9234126,12.0876059 23.760724,8.33547211 18.2597222,8.33547211 C12.7587205,8.33547211 8.52023722,12.4337731 8.52023722,17.9156116 C8.52023722,20.9070678 9.66196002,23.3064506 11.9844935,25.2083333 C11.8452722,25.5755211 11.6811373,26.3339531 11.6017259,26.7361111 C8.82081745,24.652383 7.18333333,21.4106396 7.18333333,17.9156116 C7.18333333,11.8277884 12.1520773,6.875 18.2597222,6.875 C24.3673671,6.875 29.3361111,11.8277884 29.3361111,17.9156116 C29.3361111,21.41014 27.698627,24.6518834 24.9182212,26.7361111 C24.8388097,26.3344527 24.5397152,25.5755211 24.4004939,25.2083333 Z" id="Fill-3" fill="#15477D"></path>
                        <g id="Group-7">
                            <mask id="mask-4" fill="white">
                                <use xlink:href="#path-3"></use>
                            </mask>
                            <g id="Clip-6"></g>
                            <path d="M24.7386097,33.5676956 C31.1456346,30.9526631 35.2413152,24.9971965 35.2413152,18.1399455 C35.2413152,8.73568728 27.8394508,1.33830261 18.3330745,1.33830261 C8.82669809,1.33830261 1.44619878,8.73568728 1.44619878,18.1399455 C1.44619878,25.095784 5.39913619,30.914214 11.890589,33.5676956 C11.9280569,33.98965 11.8421304,34.7332015 11.890589,35.1241008 C4.74519502,32.4770274 -0.000249786546,25.7499118 -0.000249786546,18.1399455 C-0.000249786546,8.13775431 8.22422203,-0.000147881196 18.3335831,-0.000147881196 C28.4424446,-0.000147881196 36.6669165,8.13775431 36.6669165,18.1399455 C36.6669165,25.7701222 31.9064845,32.5021672 24.7386097,35.1388889 C24.7930632,34.744539 24.6966456,33.9906358 24.7386097,33.5676956 Z" id="Fill-5" fill="#15477D" mask="url(#mask-4)"></path>
                        </g>
                        <path d="M18.3336224,15 C16.6793871,15 15.3333333,16.3459615 15.3333333,18 C15.3333333,19.6540385 16.6793871,21 18.3336224,21 C19.9878578,21 21.3333333,19.6540385 21.3333333,18 C21.3333333,16.3459615 19.9878578,15 18.3336224,15 M18.3333333,22 C16.1275586,22 14.3333333,20.2054054 14.3333333,18 C14.3333333,15.7945946 16.1275586,14 18.3333333,14 C20.539108,14 22.3333333,15.7945946 22.3333333,18 C22.3333333,20.2054054 20.539108,22 18.3333333,22" id="Fill-8" fill="#15477D"></path>
                    </g>
                </g>
            </g>
        </g>
    </g>
</svg>