<?xml version="1.0" encoding="UTF-8"?>
<svg width="60px" height="60px" viewBox="0 0 60 60" version="1.1" xmlns="http://www.w3.org/2000/svg" xmlns:xlink="http://www.w3.org/1999/xlink">
    <title>4B58D130-15D8-4972-A5EC-CCA3025AA543</title>
    <defs>
        <linearGradient x1="38.2403154%" y1="32.7449375%" x2="110.335071%" y2="100%" id="linearGradient-1">
            <stop stop-color="#005AA2" offset="0%"></stop>
            <stop stop-color="#4DBBC6" offset="100%"></stop>
        </linearGradient>
        <filter color-interpolation-filters="auto" id="filter-2">
            <feColorMatrix in="SourceGraphic" type="matrix" values="0 0 0 0 1.000000 0 0 0 0 1.000000 0 0 0 0 1.000000 0 0 0 1.000000 0"></feColorMatrix>
        </filter>
        <polygon id="path-3" points="0 0 44 0 44 42.1666667 0 42.1666667"></polygon>
    </defs>
    <g id="Content-Detail-Opt-1" stroke="none" stroke-width="1" fill="none" fill-rule="evenodd">
        <g id="Desktop.Content.Detail.Aboriginal-Health-Wellness2" transform="translate(-736.000000, -3320.000000)">
            <g id="Group-4" transform="translate(736.000000, 3320.000000)">
                <g id="icon" fill="url(#linearGradient-1)">
                    <rect id="bg" x="0" y="0" width="60" height="60" rx="4"></rect>
                </g>
                <g filter="url(#filter-2)" id="Group-10">
                    <g transform="translate(8.000000, 6.000000)">
                        <path d="M22,31.5263713 C19.6800642,31.5263713 18.776072,32.3722574 18.776072,34.5432489 C18.776072,39.7839135 19.197935,43.4824895 20.0298563,45.5351266 C20.6275473,47.0104958 21.2271023,47.306962 22,47.306962 C22.7691699,47.306962 23.3246125,46.7691456 23.8589309,45.509019 C24.7641656,43.3716772 25.2233067,39.682384 25.2233067,34.5432489 C25.2233067,32.3722574 24.3199358,31.5263713 22,31.5263713 M22,48.5833333 C19.733496,48.5833333 17.4166667,46.9153481 17.4166667,34.5432489 C17.4166667,31.6545886 18.9158646,30.25 22,30.25 C25.0841354,30.25 26.5833333,31.6545886 26.5833333,34.5432489 C26.5833333,43.9907173 25.0841354,48.5833333 22,48.5833333" id="Fill-1" fill="#15477D"></path>
                        <path d="M29.5318654,32.0833333 C29.4365717,31.6013432 29.3044873,31.1385367 29.1374217,30.6979114 C31.9244619,28.4150527 33.5130929,25.0878819 33.5130929,21.4987339 C33.5130929,14.9205277 28.1428688,9.56887849 21.5416667,9.56887849 C14.9404646,9.56887849 9.57024042,14.9205277 9.57024042,21.4987339 C9.57024042,25.0884814 11.1594745,28.4150527 13.9465147,30.6973119 C13.7794491,31.1379373 13.6473648,31.6007437 13.552071,32.0833333 C10.2149809,29.5828596 8.25,25.6927675 8.25,21.4987339 C8.25,14.1933461 14.2124928,8.25 21.5416667,8.25 C28.8708405,8.25 34.8333333,14.1933461 34.8333333,21.4987339 C34.8333333,25.6921681 32.8683524,29.5822601 29.5318654,32.0833333" id="Fill-3" fill="#15477D"></path>
                        <g id="Group-7">
                            <mask id="mask-4" fill="white">
                                <use xlink:href="#path-3"></use>
                            </mask>
                            <g id="Clip-6"></g>
                            <path d="M29.6863317,42.1666667 C29.7516758,41.6934468 29.8104256,41.2012982 29.8607826,40.69377 C37.5492125,37.555731 42.6880211,29.9966358 42.6880211,21.7679345 C42.6880211,10.4828247 33.4079514,1.30117706 22.0002997,1.30117706 C10.5926481,1.30117706 1.31197885,10.4828247 1.31197885,21.7679345 C1.31197885,30.1149407 6.32369611,37.4995361 14.1134394,40.683714 C14.158401,41.1900593 14.2105564,41.6798418 14.2687067,42.1489209 C5.69423402,38.9724328 -0.000299743855,30.8998941 -0.000299743855,21.7679345 C-0.000299743855,9.76530518 9.86906643,-0.000177457435 22.0002997,-0.000177457435 C34.1309336,-0.000177457435 44.0002997,9.76530518 44.0002997,21.7679345 C44.0002997,30.9241466 38.2877814,39.0026006 29.6863317,42.1666667" id="Fill-5" fill="#15477D" mask="url(#mask-4)"></path>
                        </g>
                        <path d="M22,18.7792793 C20.2224594,18.7792793 18.776072,20.224268 18.776072,22 C18.776072,23.775732 20.2224594,25.2207207 22,25.2207207 C23.7775406,25.2207207 25.2233067,23.775732 25.2233067,22 C25.2233067,20.224268 23.7775406,18.7792793 22,18.7792793 M22,26.5833333 C19.4725498,26.5833333 17.4166667,24.527027 17.4166667,22 C17.4166667,19.472973 19.4725498,17.4166667 22,17.4166667 C24.5274502,17.4166667 26.5833333,19.472973 26.5833333,22 C26.5833333,24.527027 24.5274502,26.5833333 22,26.5833333" id="Fill-8" fill="#15477D"></path>
                    </g>
                </g>
            </g>
        </g>
    </g>
</svg>