<svg xmlns="http://www.w3.org/2000/svg" width="24" height="24" viewBox="0 0 24 24">
    <g fill="none" fill-rule="evenodd">
        <g fill="#fff">
            <g>
                <path d="M11.628 1.538c-.273 0-.494.221-.494.494s.221.495.494.495c1.794 0 1.987 1.976 1.987 2.825 0 5.804-4.095 9.878-6.313 9.878C5.085 15.23.99 11.156.99 5.352c0-.85.193-2.825 1.987-2.825.273 0 .495-.222.495-.495s-.222-.494-.495-.494C1.14 1.538 0 2.999 0 5.352 0 11.656 4.361 16.22 7.302 16.22c2.94 0 7.302-4.563 7.302-10.867 0-2.353-1.14-3.814-2.976-3.814" transform="translate(1.000000, 0.000000)"/>
                <path d="M10.084.989c-.574 0-1.042.468-1.042 1.043s.468 1.043 1.042 1.043c.575 0 1.043-.468 1.043-1.043S10.66.99 10.084.99m0 3.075c-1.12 0-2.031-.912-2.031-2.032S8.964 0 10.084 0s2.032.912 2.032 2.032-.911 2.032-2.032 2.032M19.037 18.932c-.702 0-1.272.57-1.272 1.272 0 .701.57 1.272 1.272 1.272.701 0 1.272-.57 1.272-1.272 0-.702-.57-1.272-1.272-1.272m0 3.533c-1.247 0-2.261-1.014-2.261-2.261s1.014-2.261 2.26-2.261c1.248 0 2.262 1.014 2.262 2.26 0 1.248-1.014 2.262-2.261 2.262" transform="translate(1.000000, 0.000000)"/>
                <path d="M10.489 24c-1.81 0-3.681-1.16-3.681-3.102v-5.174c0-.273.221-.494.494-.494s.494.221.494.494v5.174c0 1.323 1.37 2.113 2.693 2.113.636 0 1.208-.182 1.61-.514.45-.37.678-.908.678-1.6v-3.785c0-1.666 1.726-2.538 3.432-2.538.845 0 1.633.213 2.22.601.71.47 1.102 1.185 1.102 2.014v1.038c0 .273-.221.494-.494.494s-.495-.221-.495-.494v-1.038c0-.5-.221-.9-.658-1.189-.427-.282-1.022-.437-1.675-.437-1.185 0-2.443.543-2.443 1.55v3.785c0 .987-.36 1.804-1.039 2.363-.579.476-1.374.739-2.238.739M4.52.989c-.575 0-1.043.468-1.043 1.043s.468 1.043 1.043 1.043 1.042-.468 1.042-1.043S5.095.99 4.52.99m0 3.075c-1.12 0-2.032-.912-2.032-2.032S3.4 0 4.52 0 6.55.912 6.55 2.032 5.64 4.064 4.52 4.064" transform="translate(1.000000, 0.000000)"/>
            </g>
            <g>
                <path d="M11.628 1.538c-.273 0-.494.221-.494.494s.221.495.494.495c1.794 0 1.987 1.976 1.987 2.825 0 5.804-4.095 9.878-6.313 9.878C5.085 15.23.99 11.156.99 5.352c0-.85.193-2.825 1.987-2.825.273 0 .495-.222.495-.495s-.222-.494-.495-.494C1.14 1.538 0 2.999 0 5.352 0 11.656 4.361 16.22 7.302 16.22c2.94 0 7.302-4.563 7.302-10.867 0-2.353-1.14-3.814-2.976-3.814" transform="translate(1.000000, 0.000000)"/>
                <path d="M10.084.989c-.574 0-1.042.468-1.042 1.043s.468 1.043 1.042 1.043c.575 0 1.043-.468 1.043-1.043S10.66.99 10.084.99m0 3.075c-1.12 0-2.031-.912-2.031-2.032S8.964 0 10.084 0s2.032.912 2.032 2.032-.911 2.032-2.032 2.032M19.037 18.932c-.702 0-1.272.57-1.272 1.272 0 .701.57 1.272 1.272 1.272.701 0 1.272-.57 1.272-1.272 0-.702-.57-1.272-1.272-1.272m0 3.533c-1.247 0-2.261-1.014-2.261-2.261s1.014-2.261 2.26-2.261c1.248 0 2.262 1.014 2.262 2.26 0 1.248-1.014 2.262-2.261 2.262" transform="translate(1.000000, 0.000000)"/>
                <path d="M10.489 24c-1.81 0-3.681-1.16-3.681-3.102v-5.174c0-.273.221-.494.494-.494s.494.221.494.494v5.174c0 1.323 1.37 2.113 2.693 2.113.636 0 1.208-.182 1.61-.514.45-.37.678-.908.678-1.6v-3.785c0-1.666 1.726-2.538 3.432-2.538.845 0 1.633.213 2.22.601.71.47 1.102 1.185 1.102 2.014v1.038c0 .273-.221.494-.494.494s-.495-.221-.495-.494v-1.038c0-.5-.221-.9-.658-1.189-.427-.282-1.022-.437-1.675-.437-1.185 0-2.443.543-2.443 1.55v3.785c0 .987-.36 1.804-1.039 2.363-.579.476-1.374.739-2.238.739M4.52.989c-.575 0-1.043.468-1.043 1.043s.468 1.043 1.043 1.043 1.042-.468 1.042-1.043S5.095.99 4.52.99m0 3.075c-1.12 0-2.032-.912-2.032-2.032S3.4 0 4.52 0 6.55.912 6.55 2.032 5.64 4.064 4.52 4.064" transform="translate(1.000000, 0.000000)"/>
            </g>
            <g>
                <path d="M11.628 1.538c-.273 0-.494.221-.494.494s.221.495.494.495c1.794 0 1.987 1.976 1.987 2.825 0 5.804-4.095 9.878-6.313 9.878C5.085 15.23.99 11.156.99 5.352c0-.85.193-2.825 1.987-2.825.273 0 .495-.222.495-.495s-.222-.494-.495-.494C1.14 1.538 0 2.999 0 5.352 0 11.656 4.361 16.22 7.302 16.22c2.94 0 7.302-4.563 7.302-10.867 0-2.353-1.14-3.814-2.976-3.814" transform="translate(1.000000, 0.000000)"/>
                <path d="M10.084.989c-.574 0-1.042.468-1.042 1.043s.468 1.043 1.042 1.043c.575 0 1.043-.468 1.043-1.043S10.66.99 10.084.99m0 3.075c-1.12 0-2.031-.912-2.031-2.032S8.964 0 10.084 0s2.032.912 2.032 2.032-.911 2.032-2.032 2.032M19.037 18.932c-.702 0-1.272.57-1.272 1.272 0 .701.57 1.272 1.272 1.272.701 0 1.272-.57 1.272-1.272 0-.702-.57-1.272-1.272-1.272m0 3.533c-1.247 0-2.261-1.014-2.261-2.261s1.014-2.261 2.26-2.261c1.248 0 2.262 1.014 2.262 2.26 0 1.248-1.014 2.262-2.261 2.262" transform="translate(1.000000, 0.000000)"/>
                <path d="M10.489 24c-1.81 0-3.681-1.16-3.681-3.102v-5.174c0-.273.221-.494.494-.494s.494.221.494.494v5.174c0 1.323 1.37 2.113 2.693 2.113.636 0 1.208-.182 1.61-.514.45-.37.678-.908.678-1.6v-3.785c0-1.666 1.726-2.538 3.432-2.538.845 0 1.633.213 2.22.601.71.47 1.102 1.185 1.102 2.014v1.038c0 .273-.221.494-.494.494s-.495-.221-.495-.494v-1.038c0-.5-.221-.9-.658-1.189-.427-.282-1.022-.437-1.675-.437-1.185 0-2.443.543-2.443 1.55v3.785c0 .987-.36 1.804-1.039 2.363-.579.476-1.374.739-2.238.739M4.52.989c-.575 0-1.043.468-1.043 1.043s.468 1.043 1.043 1.043 1.042-.468 1.042-1.043S5.095.99 4.52.99m0 3.075c-1.12 0-2.032-.912-2.032-2.032S3.4 0 4.52 0 6.55.912 6.55 2.032 5.64 4.064 4.52 4.064" transform="translate(1.000000, 0.000000)"/>
            </g>
        </g>
    </g>
</svg>
