<svg xmlns="http://www.w3.org/2000/svg" width="31" height="30" viewBox="0 0 31 30">
    <defs>
        <filter id="bhyjcgxlda" color-interpolation-filters="auto">
            <feColorMatrix in="SourceGraphic" values="0 0 0 0 1.000000 0 0 0 0 1.000000 0 0 0 0 1.000000 0 0 0 1.000000 0"/>
        </filter>
    </defs>
    <g fill="none" fill-rule="evenodd">
        <g>
            <g filter="url(#bhyjcgxlda)" transform="translate(-366.000000, -203.000000) translate(345.000000, 183.000000)">
                <g fill="#424242">
                    <g>
                        <path d="M15.02 1.922c-.353 0-.64.277-.64.618 0 .341.287.618.64.618 2.317 0 2.567 2.47 2.567 3.533 0 7.255-5.29 12.346-8.155 12.346-2.864 0-8.155-5.091-8.155-12.346 0-1.063.25-3.533 2.567-3.533.353 0 .639-.277.639-.618 0-.341-.286-.618-.639-.618C1.473 1.922 0 3.749 0 6.691c0 7.879 5.634 13.582 9.432 13.582s9.432-5.703 9.432-13.582c0-2.942-1.473-4.769-3.845-4.769" transform="translate(21.000000, 20.000000) translate(1.291667, 0.000000)"/>
                        <path d="M13.026 1.236c-.743 0-1.347.585-1.347 1.304 0 .719.604 1.303 1.347 1.303.742 0 1.347-.584 1.347-1.303s-.605-1.304-1.347-1.304m0 3.843c-1.447 0-2.624-1.139-2.624-2.539 0-1.4 1.177-2.54 2.624-2.54s2.624 1.14 2.624 2.54c0 1.4-1.177 2.54-2.624 2.54M24.59 23.665c-.907 0-1.644.713-1.644 1.59 0 .877.737 1.59 1.643 1.59.907 0 1.644-.713 1.644-1.59 0-.877-.737-1.59-1.644-1.59m0 4.416c-1.61 0-2.92-1.268-2.92-2.826 0-1.559 1.31-2.827 2.92-2.827 1.61 0 2.92 1.268 2.92 2.827 0 1.558-1.31 2.826-2.92 2.826" transform="translate(21.000000, 20.000000) translate(1.291667, 0.000000)"/>
                        <path d="M13.548 30c-2.337 0-4.755-1.45-4.755-3.878v-6.467c0-.341.286-.618.639-.618.353 0 .638.277.638.618v6.467c0 1.654 1.769 2.642 3.478 2.642.821 0 1.56-.228 2.08-.642.58-.463.875-1.135.875-2V21.39c0-2.083 2.23-3.172 4.433-3.172 1.092 0 2.11.266 2.868.751.918.588 1.424 1.482 1.424 2.518v1.297c0 .34-.286.618-.639.618-.352 0-.638-.277-.638-.618v-1.297c0-.625-.287-1.125-.851-1.487-.551-.352-1.32-.546-2.164-.546-1.53 0-3.155.678-3.155 1.936v4.732c0 1.234-.464 2.256-1.342 2.955-.747.595-1.774.923-2.891.923M5.838 1.236c-.743 0-1.347.585-1.347 1.304 0 .719.604 1.303 1.347 1.303S7.185 3.26 7.185 2.54 6.58 1.236 5.838 1.236m0 3.843c-1.447 0-2.624-1.139-2.624-2.539C3.214 1.14 4.39 0 5.838 0s2.624 1.14 2.624 2.54c0 1.4-1.177 2.54-2.624 2.54" transform="translate(21.000000, 20.000000) translate(1.291667, 0.000000)"/>
                    </g>
                    <g>
                        <path d="M15.02 1.922c-.353 0-.64.277-.64.618 0 .341.287.618.64.618 2.317 0 2.567 2.47 2.567 3.533 0 7.255-5.29 12.346-8.155 12.346-2.864 0-8.155-5.091-8.155-12.346 0-1.063.25-3.533 2.567-3.533.353 0 .639-.277.639-.618 0-.341-.286-.618-.639-.618C1.473 1.922 0 3.749 0 6.691c0 7.879 5.634 13.582 9.432 13.582s9.432-5.703 9.432-13.582c0-2.942-1.473-4.769-3.845-4.769" transform="translate(21.000000, 20.000000) translate(1.291667, 0.000000)"/>
                        <path d="M13.026 1.236c-.743 0-1.347.585-1.347 1.304 0 .719.604 1.303 1.347 1.303.742 0 1.347-.584 1.347-1.303s-.605-1.304-1.347-1.304m0 3.843c-1.447 0-2.624-1.139-2.624-2.539 0-1.4 1.177-2.54 2.624-2.54s2.624 1.14 2.624 2.54c0 1.4-1.177 2.54-2.624 2.54M24.59 23.665c-.907 0-1.644.713-1.644 1.59 0 .877.737 1.59 1.643 1.59.907 0 1.644-.713 1.644-1.59 0-.877-.737-1.59-1.644-1.59m0 4.416c-1.61 0-2.92-1.268-2.92-2.826 0-1.559 1.31-2.827 2.92-2.827 1.61 0 2.92 1.268 2.92 2.827 0 1.558-1.31 2.826-2.92 2.826" transform="translate(21.000000, 20.000000) translate(1.291667, 0.000000)"/>
                        <path d="M13.548 30c-2.337 0-4.755-1.45-4.755-3.878v-6.467c0-.341.286-.618.639-.618.353 0 .638.277.638.618v6.467c0 1.654 1.769 2.642 3.478 2.642.821 0 1.56-.228 2.08-.642.58-.463.875-1.135.875-2V21.39c0-2.083 2.23-3.172 4.433-3.172 1.092 0 2.11.266 2.868.751.918.588 1.424 1.482 1.424 2.518v1.297c0 .34-.286.618-.639.618-.352 0-.638-.277-.638-.618v-1.297c0-.625-.287-1.125-.851-1.487-.551-.352-1.32-.546-2.164-.546-1.53 0-3.155.678-3.155 1.936v4.732c0 1.234-.464 2.256-1.342 2.955-.747.595-1.774.923-2.891.923M5.838 1.236c-.743 0-1.347.585-1.347 1.304 0 .719.604 1.303 1.347 1.303S7.185 3.26 7.185 2.54 6.58 1.236 5.838 1.236m0 3.843c-1.447 0-2.624-1.139-2.624-2.539C3.214 1.14 4.39 0 5.838 0s2.624 1.14 2.624 2.54c0 1.4-1.177 2.54-2.624 2.54" transform="translate(21.000000, 20.000000) translate(1.291667, 0.000000)"/>
                    </g>
                    <g>
                        <path d="M15.02 1.922c-.353 0-.64.277-.64.618 0 .341.287.618.64.618 2.317 0 2.567 2.47 2.567 3.533 0 7.255-5.29 12.346-8.155 12.346-2.864 0-8.155-5.091-8.155-12.346 0-1.063.25-3.533 2.567-3.533.353 0 .639-.277.639-.618 0-.341-.286-.618-.639-.618C1.473 1.922 0 3.749 0 6.691c0 7.879 5.634 13.582 9.432 13.582s9.432-5.703 9.432-13.582c0-2.942-1.473-4.769-3.845-4.769" transform="translate(21.000000, 20.000000) translate(1.291667, 0.000000)"/>
                        <path d="M13.026 1.236c-.743 0-1.347.585-1.347 1.304 0 .719.604 1.303 1.347 1.303.742 0 1.347-.584 1.347-1.303s-.605-1.304-1.347-1.304m0 3.843c-1.447 0-2.624-1.139-2.624-2.539 0-1.4 1.177-2.54 2.624-2.54s2.624 1.14 2.624 2.54c0 1.4-1.177 2.54-2.624 2.54M24.59 23.665c-.907 0-1.644.713-1.644 1.59 0 .877.737 1.59 1.643 1.59.907 0 1.644-.713 1.644-1.59 0-.877-.737-1.59-1.644-1.59m0 4.416c-1.61 0-2.92-1.268-2.92-2.826 0-1.559 1.31-2.827 2.92-2.827 1.61 0 2.92 1.268 2.92 2.827 0 1.558-1.31 2.826-2.92 2.826" transform="translate(21.000000, 20.000000) translate(1.291667, 0.000000)"/>
                        <path d="M13.548 30c-2.337 0-4.755-1.45-4.755-3.878v-6.467c0-.341.286-.618.639-.618.353 0 .638.277.638.618v6.467c0 1.654 1.769 2.642 3.478 2.642.821 0 1.56-.228 2.08-.642.58-.463.875-1.135.875-2V21.39c0-2.083 2.23-3.172 4.433-3.172 1.092 0 2.11.266 2.868.751.918.588 1.424 1.482 1.424 2.518v1.297c0 .34-.286.618-.639.618-.352 0-.638-.277-.638-.618v-1.297c0-.625-.287-1.125-.851-1.487-.551-.352-1.32-.546-2.164-.546-1.53 0-3.155.678-3.155 1.936v4.732c0 1.234-.464 2.256-1.342 2.955-.747.595-1.774.923-2.891.923M5.838 1.236c-.743 0-1.347.585-1.347 1.304 0 .719.604 1.303 1.347 1.303S7.185 3.26 7.185 2.54 6.58 1.236 5.838 1.236m0 3.843c-1.447 0-2.624-1.139-2.624-2.539C3.214 1.14 4.39 0 5.838 0s2.624 1.14 2.624 2.54c0 1.4-1.177 2.54-2.624 2.54" transform="translate(21.000000, 20.000000) translate(1.291667, 0.000000)"/>
                    </g>
                </g>
            </g>
        </g>
    </g>
</svg>
